<mxfile host="app.diagrams.net" modified="2023-12-26T07:43:19.267Z" agent="Mozilla/5.0 (Macintosh; Intel Mac OS X 10_15_7) AppleWebKit/537.36 (KHTML, like Gecko) Chrome/120.0.0.0 Safari/537.36" version="22.1.11" etag="P2hUNBQ-MVNNC68W2hnx" type="github">
  <diagram name="第 1 页" id="Mh76Ae0b8bXAPOSIdF7Q">
    <mxGraphModel>
      <root>
        <mxCell id="0" />
        <mxCell id="1" parent="0" />
      </root>
    </mxGraphModel>
  </diagram>
</mxfile>
